<?xml version="1.0" standalone="no"?><!-- Generator: Gravit.io --><svg xmlns="http://www.w3.org/2000/svg" xmlns:xlink="http://www.w3.org/1999/xlink" style="isolation:isolate" viewBox="307.723 296.274 327.96 170.082" width="327.96" height="170.082"><path d=" M 330.403 296.274 L 330.403 298.523 L 330.403 298.523 Q 327.811 298.747 326.623 299.422 L 326.623 299.422 L 326.623 299.422 Q 325.435 300.096 325.003 302.007 L 325.003 302.007 L 325.003 302.007 Q 324.571 303.918 324.571 308.19 L 324.571 308.19 L 324.571 365.296 L 324.571 365.296 Q 324.571 368.893 324.931 370.523 L 324.931 370.523 L 324.931 370.523 Q 325.291 372.153 326.191 372.715 L 326.191 372.715 L 326.191 372.715 Q 327.091 373.277 329.107 373.277 L 329.107 373.277 L 332.635 373.277 L 332.635 373.277 Q 337.531 373.277 341.095 366.42 L 341.095 366.42 L 341.095 366.42 Q 344.659 359.563 345.739 348.209 L 345.739 348.209 L 347.395 348.209 L 347.395 348.209 Q 347.179 352.031 347.179 358.102 L 347.179 358.102 L 347.179 358.102 Q 347.179 368.893 347.683 375.863 L 347.683 375.863 L 347.683 375.863 Q 342.787 375.526 331.195 375.526 L 331.195 375.526 L 331.195 375.526 Q 315.499 375.526 307.723 375.863 L 307.723 375.863 L 307.723 373.615 L 307.723 373.615 Q 310.099 373.39 311.215 372.715 L 311.215 372.715 L 311.215 372.715 Q 312.331 372.041 312.727 370.13 L 312.727 370.13 L 312.727 370.13 Q 313.123 368.219 313.123 363.947 L 313.123 363.947 L 313.123 308.19 L 313.123 308.19 Q 313.123 303.918 312.727 302.007 L 312.727 302.007 L 312.727 302.007 Q 312.331 300.096 311.215 299.422 L 311.215 299.422 L 311.215 299.422 Q 310.099 298.747 307.723 298.523 L 307.723 298.523 L 307.723 296.274 L 307.723 296.274 Q 311.395 296.612 319.099 296.612 L 319.099 296.612 L 319.099 296.612 Q 326.443 296.612 330.403 296.274 L 330.403 296.274 Z  M 373.531 307.516 L 373.531 309.764 L 373.531 309.764 Q 371.083 309.989 370.003 310.663 L 370.003 310.663 L 370.003 310.663 Q 368.923 311.338 368.527 313.249 L 368.527 313.249 L 368.527 313.249 Q 368.131 315.16 368.131 319.431 L 368.131 319.431 L 368.131 363.947 L 368.131 363.947 Q 368.131 368.219 368.527 370.13 L 368.527 370.13 L 368.527 370.13 Q 368.923 372.041 370.003 372.715 L 370.003 372.715 L 370.003 372.715 Q 371.083 373.39 373.531 373.615 L 373.531 373.615 L 373.531 375.863 L 373.531 375.863 Q 369.859 375.526 362.875 375.526 L 362.875 375.526 L 362.875 375.526 Q 355.315 375.526 351.715 375.863 L 351.715 375.863 L 351.715 373.615 L 351.715 373.615 Q 354.163 373.39 355.243 372.715 L 355.243 372.715 L 355.243 372.715 Q 356.323 372.041 356.719 370.13 L 356.719 370.13 L 356.719 370.13 Q 357.115 368.219 357.115 363.947 L 357.115 363.947 L 357.115 319.431 L 357.115 319.431 Q 357.115 315.16 356.719 313.249 L 356.719 313.249 L 356.719 313.249 Q 356.323 311.338 355.207 310.663 L 355.207 310.663 L 355.207 310.663 Q 354.091 309.989 351.715 309.764 L 351.715 309.764 L 351.715 307.516 L 351.715 307.516 Q 355.243 307.853 362.875 307.853 L 362.875 307.853 L 362.875 307.853 Q 369.859 307.853 373.531 307.516 L 373.531 307.516 Z  M 403.771 339.441 L 403.771 339.441 Q 412.843 340.902 416.587 345.624 L 416.587 345.624 L 416.587 345.624 Q 420.331 350.345 420.331 357.427 L 420.331 357.427 L 420.331 357.427 Q 420.331 366.083 415.363 370.973 L 415.363 370.973 L 415.363 370.973 Q 410.395 375.863 401.179 375.863 L 401.179 375.863 L 401.179 375.863 Q 399.163 375.863 397.723 375.75 L 397.723 375.75 L 397.723 375.75 Q 392.827 375.526 388.219 375.526 L 388.219 375.526 L 388.219 375.526 Q 381.811 375.526 378.427 375.863 L 378.427 375.863 L 378.427 373.615 L 378.427 373.615 Q 380.875 373.39 381.955 372.715 L 381.955 372.715 L 381.955 372.715 Q 383.035 372.041 383.431 370.13 L 383.431 370.13 L 383.431 370.13 Q 383.827 368.219 383.827 363.947 L 383.827 363.947 L 383.827 319.431 L 383.827 319.431 Q 383.827 315.16 383.431 313.249 L 383.431 313.249 L 383.431 313.249 Q 383.035 311.338 381.955 310.663 L 381.955 310.663 L 381.955 310.663 Q 380.875 309.989 378.427 309.764 L 378.427 309.764 L 378.427 307.516 L 378.427 307.516 Q 381.811 307.853 388.075 307.853 L 388.075 307.853 L 396.283 307.741 L 396.283 307.741 Q 397.723 307.628 399.523 307.628 L 399.523 307.628 L 399.523 307.628 Q 408.163 307.628 412.375 311.619 L 412.375 311.619 L 412.375 311.619 Q 416.587 315.609 416.587 323.029 L 416.587 323.029 L 416.587 323.029 Q 416.587 328.762 413.563 332.865 L 413.563 332.865 L 413.563 332.865 Q 410.539 336.968 403.771 339.216 L 403.771 339.216 L 403.771 339.441 Z  M 398.587 309.764 L 398.587 309.764 Q 397.003 309.764 396.211 310.551 L 396.211 310.551 L 396.211 310.551 Q 395.419 311.338 395.131 313.361 L 395.131 313.361 L 395.131 313.361 Q 394.843 315.385 394.843 319.431 L 394.843 319.431 L 394.843 339.216 L 397.219 339.216 L 397.219 339.216 Q 401.827 339.216 403.591 335.282 L 403.591 335.282 L 403.591 335.282 Q 405.355 331.347 405.355 324.265 L 405.355 324.265 L 405.355 324.265 Q 405.355 316.958 403.771 313.361 L 403.771 313.361 L 403.771 313.361 Q 402.187 309.764 398.587 309.764 L 398.587 309.764 Z  M 398.659 373.277 L 398.659 373.277 Q 403.915 373.277 406.363 369.174 L 406.363 369.174 L 406.363 369.174 Q 408.811 365.071 408.811 356.977 L 408.811 356.977 L 408.811 356.977 Q 408.811 349.109 406.327 345.118 L 406.327 345.118 L 406.327 345.118 Q 403.843 341.127 398.443 341.127 L 398.443 341.127 L 394.843 341.127 L 394.843 363.947 L 394.843 363.947 Q 394.843 367.994 395.131 369.905 L 395.131 369.905 L 395.131 369.905 Q 395.419 371.816 396.211 372.547 L 396.211 372.547 L 396.211 372.547 Q 397.003 373.277 398.659 373.277 L 398.659 373.277 Z  M 470.227 369.68 L 471.235 371.141 L 471.235 371.141 Q 469.507 374.289 467.347 375.863 L 467.347 375.863 L 467.347 375.863 Q 465.187 377.437 461.947 377.437 L 461.947 377.437 L 461.947 377.437 Q 457.843 377.437 455.611 374.964 L 455.611 374.964 L 455.611 374.964 Q 453.379 372.49 452.731 368.331 L 452.731 368.331 L 450.643 355.066 L 450.643 355.066 Q 449.851 348.771 448.231 346.692 L 448.231 346.692 L 448.231 346.692 Q 446.611 344.612 443.443 344.612 L 443.443 344.612 L 441.067 344.612 L 441.067 363.947 L 441.067 363.947 Q 441.067 368.219 441.463 370.13 L 441.463 370.13 L 441.463 370.13 Q 441.859 372.041 442.975 372.715 L 442.975 372.715 L 442.975 372.715 Q 444.091 373.39 446.467 373.615 L 446.467 373.615 L 446.467 375.863 L 446.467 375.863 Q 442.363 375.526 434.731 375.526 L 434.731 375.526 L 434.731 375.526 Q 428.035 375.526 424.651 375.863 L 424.651 375.863 L 424.651 373.615 L 424.651 373.615 Q 427.099 373.39 428.179 372.715 L 428.179 372.715 L 428.179 372.715 Q 429.259 372.041 429.655 370.13 L 429.655 370.13 L 429.655 370.13 Q 430.051 368.219 430.051 363.947 L 430.051 363.947 L 430.051 319.431 L 430.051 319.431 Q 430.051 315.16 429.655 313.249 L 429.655 313.249 L 429.655 313.249 Q 429.259 311.338 428.179 310.663 L 428.179 310.663 L 428.179 310.663 Q 427.099 309.989 424.651 309.764 L 424.651 309.764 L 424.651 307.516 L 424.651 307.516 Q 428.035 307.853 434.299 307.853 L 434.299 307.853 L 442.507 307.741 L 442.507 307.741 Q 443.947 307.628 445.747 307.628 L 445.747 307.628 L 445.747 307.628 Q 455.395 307.628 460.183 312.181 L 460.183 312.181 L 460.183 312.181 Q 464.971 316.734 464.971 324.827 L 464.971 324.827 L 464.971 324.827 Q 464.971 331.797 461.155 337.08 L 461.155 337.08 L 461.155 337.08 Q 457.339 342.364 448.411 343.825 L 448.411 343.825 L 448.411 343.825 Q 449.419 343.825 450.499 344.162 L 450.499 344.162 L 450.499 344.162 Q 455.683 345.062 458.671 347.76 L 458.671 347.76 L 458.671 347.76 Q 461.659 350.457 462.595 356.303 L 462.595 356.303 L 464.107 366.308 L 464.107 366.308 Q 464.611 369.455 465.331 370.804 L 465.331 370.804 L 465.331 370.804 Q 466.051 372.153 467.131 372.153 L 467.131 372.153 L 467.131 372.153 Q 468.643 372.153 470.227 369.68 L 470.227 369.68 Z  M 444.811 309.764 L 444.811 309.764 Q 443.227 309.764 442.435 310.551 L 442.435 310.551 L 442.435 310.551 Q 441.643 311.338 441.355 313.361 L 441.355 313.361 L 441.355 313.361 Q 441.067 315.385 441.067 319.431 L 441.067 319.431 L 441.067 342.364 L 444.163 342.364 L 444.163 342.364 Q 449.491 342.364 451.471 338.092 L 451.471 338.092 L 451.471 338.092 Q 453.451 333.82 453.451 326.064 L 453.451 326.064 L 453.451 326.064 Q 453.451 317.858 451.471 313.811 L 451.471 313.811 L 451.471 313.811 Q 449.491 309.764 444.811 309.764 L 444.811 309.764 Z  M 511.339 366.42 L 511.339 366.42 Q 513.427 373.39 515.875 373.615 L 515.875 373.615 L 515.875 375.863 L 515.875 375.863 Q 512.419 375.526 506.443 375.526 L 506.443 375.526 L 506.443 375.526 Q 498.739 375.526 495.067 375.863 L 495.067 375.863 L 495.067 373.615 L 495.067 373.615 Q 497.443 373.39 498.595 372.434 L 498.595 372.434 L 498.595 372.434 Q 499.747 371.479 499.747 369.23 L 499.747 369.23 L 499.747 369.23 Q 499.747 367.207 498.811 364.172 L 498.811 364.172 L 495.211 351.357 L 480.091 351.357 L 479.227 354.392 L 479.227 354.392 Q 477.211 361.811 477.211 365.97 L 477.211 365.97 L 477.211 365.97 Q 477.211 369.793 478.795 371.591 L 478.795 371.591 L 478.795 371.591 Q 480.379 373.39 483.475 373.615 L 483.475 373.615 L 483.475 375.863 L 483.475 375.863 Q 479.371 375.526 475.195 375.526 L 475.195 375.526 L 475.195 375.526 Q 471.307 375.526 469.363 375.863 L 469.363 375.863 L 469.363 373.615 L 469.363 373.615 Q 471.091 373.052 472.567 370.186 L 472.567 370.186 L 472.567 370.186 Q 474.043 367.319 475.699 361.586 L 475.699 361.586 L 490.891 307.291 L 490.891 307.291 Q 491.467 307.403 492.547 307.403 L 492.547 307.403 L 492.547 307.403 Q 493.699 307.403 494.203 307.291 L 494.203 307.291 L 511.339 366.42 Z  M 480.739 349.109 L 494.563 349.109 L 487.651 324.49 L 480.739 349.109 Z  M 563.323 369.68 L 564.331 371.141 L 564.331 371.141 Q 562.603 374.289 560.443 375.863 L 560.443 375.863 L 560.443 375.863 Q 558.283 377.437 555.043 377.437 L 555.043 377.437 L 555.043 377.437 Q 550.939 377.437 548.707 374.964 L 548.707 374.964 L 548.707 374.964 Q 546.475 372.49 545.827 368.331 L 545.827 368.331 L 543.739 355.066 L 543.739 355.066 Q 542.947 348.771 541.327 346.692 L 541.327 346.692 L 541.327 346.692 Q 539.707 344.612 536.539 344.612 L 536.539 344.612 L 534.163 344.612 L 534.163 363.947 L 534.163 363.947 Q 534.163 368.219 534.559 370.13 L 534.559 370.13 L 534.559 370.13 Q 534.955 372.041 536.071 372.715 L 536.071 372.715 L 536.071 372.715 Q 537.187 373.39 539.563 373.615 L 539.563 373.615 L 539.563 375.863 L 539.563 375.863 Q 535.459 375.526 527.827 375.526 L 527.827 375.526 L 527.827 375.526 Q 521.131 375.526 517.747 375.863 L 517.747 375.863 L 517.747 373.615 L 517.747 373.615 Q 520.195 373.39 521.275 372.715 L 521.275 372.715 L 521.275 372.715 Q 522.355 372.041 522.751 370.13 L 522.751 370.13 L 522.751 370.13 Q 523.147 368.219 523.147 363.947 L 523.147 363.947 L 523.147 319.431 L 523.147 319.431 Q 523.147 315.16 522.751 313.249 L 522.751 313.249 L 522.751 313.249 Q 522.355 311.338 521.275 310.663 L 521.275 310.663 L 521.275 310.663 Q 520.195 309.989 517.747 309.764 L 517.747 309.764 L 517.747 307.516 L 517.747 307.516 Q 521.131 307.853 527.395 307.853 L 527.395 307.853 L 535.603 307.741 L 535.603 307.741 Q 537.043 307.628 538.843 307.628 L 538.843 307.628 L 538.843 307.628 Q 548.491 307.628 553.279 312.181 L 553.279 312.181 L 553.279 312.181 Q 558.067 316.734 558.067 324.827 L 558.067 324.827 L 558.067 324.827 Q 558.067 331.797 554.251 337.08 L 554.251 337.08 L 554.251 337.08 Q 550.435 342.364 541.507 343.825 L 541.507 343.825 L 541.507 343.825 Q 542.515 343.825 543.595 344.162 L 543.595 344.162 L 543.595 344.162 Q 548.779 345.062 551.767 347.76 L 551.767 347.76 L 551.767 347.76 Q 554.755 350.457 555.691 356.303 L 555.691 356.303 L 557.203 366.308 L 557.203 366.308 Q 557.707 369.455 558.427 370.804 L 558.427 370.804 L 558.427 370.804 Q 559.147 372.153 560.227 372.153 L 560.227 372.153 L 560.227 372.153 Q 561.739 372.153 563.323 369.68 L 563.323 369.68 Z  M 537.907 309.764 L 537.907 309.764 Q 536.323 309.764 535.531 310.551 L 535.531 310.551 L 535.531 310.551 Q 534.739 311.338 534.451 313.361 L 534.451 313.361 L 534.451 313.361 Q 534.163 315.385 534.163 319.431 L 534.163 319.431 L 534.163 342.364 L 537.259 342.364 L 537.259 342.364 Q 542.587 342.364 544.567 338.092 L 544.567 338.092 L 544.567 338.092 Q 546.547 333.82 546.547 326.064 L 546.547 326.064 L 546.547 326.064 Q 546.547 317.858 544.567 313.811 L 544.567 313.811 L 544.567 313.811 Q 542.587 309.764 537.907 309.764 L 537.907 309.764 Z  M 587.515 307.516 L 587.515 309.764 L 587.515 309.764 Q 585.067 309.989 583.987 310.663 L 583.987 310.663 L 583.987 310.663 Q 582.907 311.338 582.511 313.249 L 582.511 313.249 L 582.511 313.249 Q 582.115 315.16 582.115 319.431 L 582.115 319.431 L 582.115 363.947 L 582.115 363.947 Q 582.115 368.219 582.511 370.13 L 582.511 370.13 L 582.511 370.13 Q 582.907 372.041 583.987 372.715 L 583.987 372.715 L 583.987 372.715 Q 585.067 373.39 587.515 373.615 L 587.515 373.615 L 587.515 375.863 L 587.515 375.863 Q 583.843 375.526 576.859 375.526 L 576.859 375.526 L 576.859 375.526 Q 569.299 375.526 565.699 375.863 L 565.699 375.863 L 565.699 373.615 L 565.699 373.615 Q 568.147 373.39 569.227 372.715 L 569.227 372.715 L 569.227 372.715 Q 570.307 372.041 570.703 370.13 L 570.703 370.13 L 570.703 370.13 Q 571.099 368.219 571.099 363.947 L 571.099 363.947 L 571.099 319.431 L 571.099 319.431 Q 571.099 315.16 570.703 313.249 L 570.703 313.249 L 570.703 313.249 Q 570.307 311.338 569.191 310.663 L 569.191 310.663 L 569.191 310.663 Q 568.075 309.989 565.699 309.764 L 565.699 309.764 L 565.699 307.516 L 565.699 307.516 Q 569.227 307.853 576.859 307.853 L 576.859 307.853 L 576.859 307.853 Q 583.843 307.853 587.515 307.516 L 587.515 307.516 Z  M 631.147 366.42 L 631.147 366.42 Q 633.235 373.39 635.683 373.615 L 635.683 373.615 L 635.683 375.863 L 635.683 375.863 Q 632.227 375.526 626.251 375.526 L 626.251 375.526 L 626.251 375.526 Q 618.547 375.526 614.875 375.863 L 614.875 375.863 L 614.875 373.615 L 614.875 373.615 Q 617.251 373.39 618.403 372.434 L 618.403 372.434 L 618.403 372.434 Q 619.555 371.479 619.555 369.23 L 619.555 369.23 L 619.555 369.23 Q 619.555 367.207 618.619 364.172 L 618.619 364.172 L 615.019 351.357 L 599.899 351.357 L 599.035 354.392 L 599.035 354.392 Q 597.019 361.811 597.019 365.97 L 597.019 365.97 L 597.019 365.97 Q 597.019 369.793 598.603 371.591 L 598.603 371.591 L 598.603 371.591 Q 600.187 373.39 603.283 373.615 L 603.283 373.615 L 603.283 375.863 L 603.283 375.863 Q 599.179 375.526 595.003 375.526 L 595.003 375.526 L 595.003 375.526 Q 591.115 375.526 589.171 375.863 L 589.171 375.863 L 589.171 373.615 L 589.171 373.615 Q 590.899 373.052 592.375 370.186 L 592.375 370.186 L 592.375 370.186 Q 593.851 367.319 595.507 361.586 L 595.507 361.586 L 610.699 307.291 L 610.699 307.291 Q 611.275 307.403 612.355 307.403 L 612.355 307.403 L 612.355 307.403 Q 613.507 307.403 614.011 307.291 L 614.011 307.291 L 631.147 366.42 Z  M 600.547 349.109 L 614.371 349.109 L 607.459 324.49 L 600.547 349.109 Z " fill="rgb(0,0,0)"/><path d=" M 354.803 449.017 L 354.803 400.417 L 367.103 400.417 L 367.103 400.417 Q 373.403 400.417 376.943 401.977 L 376.943 401.977 L 376.943 401.977 Q 380.483 403.537 381.953 406.867 L 381.953 406.867 L 381.953 406.867 Q 383.423 410.197 383.423 415.777 L 383.423 415.777 L 383.423 433.417 L 383.423 433.417 Q 383.423 439.057 381.953 442.417 L 381.953 442.417 L 381.953 442.417 Q 380.483 445.777 376.973 447.397 L 376.973 447.397 L 376.973 447.397 Q 373.463 449.017 367.223 449.017 L 367.223 449.017 L 354.803 449.017 L 354.803 449.017 Z  M 365.543 441.577 L 367.223 441.577 L 367.223 441.577 Q 369.563 441.577 370.673 440.887 L 370.673 440.887 L 370.673 440.887 Q 371.783 440.197 372.083 438.907 L 372.083 438.907 L 372.083 438.907 Q 372.383 437.617 372.383 435.097 L 372.383 435.097 L 372.383 413.917 L 372.383 413.917 Q 372.383 411.577 372.053 410.347 L 372.053 410.347 L 372.053 410.347 Q 371.723 409.117 370.613 408.517 L 370.613 408.517 L 370.613 408.517 Q 369.503 407.917 367.163 407.917 L 367.163 407.917 L 365.543 407.917 L 365.543 441.577 L 365.543 441.577 Z  M 390.023 449.017 L 390.023 400.417 L 400.763 400.417 L 400.763 449.017 L 390.023 449.017 L 390.023 449.017 Z  M 420.683 449.737 L 420.683 449.737 Q 413.483 449.737 410.423 445.357 L 410.423 445.357 L 410.423 445.357 Q 407.363 440.977 407.363 432.937 L 407.363 432.937 L 407.363 416.617 L 407.363 416.617 Q 407.363 408.397 410.693 404.077 L 410.693 404.077 L 410.693 404.077 Q 414.023 399.757 421.943 399.757 L 421.943 399.757 L 421.943 399.757 Q 429.563 399.757 432.863 403.477 L 432.863 403.477 L 432.863 403.477 Q 436.163 407.197 436.163 413.977 L 436.163 413.977 L 436.163 417.097 L 425.663 417.097 L 425.663 413.137 L 425.663 413.137 Q 425.663 410.257 425.003 408.787 L 425.003 408.787 L 425.003 408.787 Q 424.343 407.317 422.063 407.317 L 422.063 407.317 L 422.063 407.317 Q 419.723 407.317 419.033 408.937 L 419.033 408.937 L 419.033 408.937 Q 418.343 410.557 418.343 413.437 L 418.343 413.437 L 418.343 435.937 L 418.343 435.937 Q 418.343 438.817 419.213 440.467 L 419.213 440.467 L 419.213 440.467 Q 420.083 442.117 422.363 442.117 L 422.363 442.117 L 422.363 442.117 Q 426.563 442.117 426.563 435.817 L 426.563 435.817 L 426.563 430.117 L 422.183 430.117 L 422.183 423.817 L 436.223 423.817 L 436.223 449.017 L 429.143 449.017 L 428.543 444.997 L 428.543 444.997 Q 426.263 449.737 420.683 449.737 L 420.683 449.737 L 420.683 449.737 Z  M 440.123 450.277 L 440.123 442.777 L 440.123 442.777 Q 442.463 442.777 443.663 442.417 L 443.663 442.417 L 443.663 442.417 Q 444.863 442.057 445.403 441.007 L 445.403 441.007 L 445.403 441.007 Q 445.943 439.957 445.943 437.857 L 445.943 437.857 L 445.943 400.417 L 456.683 400.417 L 456.683 438.337 L 456.683 438.337 Q 456.683 442.477 455.663 445.057 L 455.663 445.057 L 455.663 445.057 Q 454.643 447.637 452.153 448.957 L 452.153 448.957 L 452.153 448.957 Q 449.663 450.277 445.343 450.277 L 445.343 450.277 L 440.123 450.277 L 440.123 450.277 Z  M 463.943 449.017 L 463.943 400.417 L 474.683 400.417 L 474.683 449.017 L 463.943 449.017 L 463.943 449.017 Z  M 486.323 449.017 L 486.323 408.397 L 479.003 408.397 L 479.003 400.417 L 504.383 400.417 L 504.383 408.397 L 497.123 408.397 L 497.123 449.017 L 486.323 449.017 L 486.323 449.017 Z  M 504.143 449.017 L 513.323 400.417 L 525.563 400.417 L 534.623 449.017 L 524.723 449.017 L 523.103 438.757 L 515.963 438.757 L 514.283 449.017 L 504.143 449.017 L 504.143 449.017 Z  M 516.923 432.337 L 522.083 432.337 L 519.503 413.377 L 516.923 432.337 L 516.923 432.337 Z  M 539.543 449.017 L 539.543 400.417 L 550.283 400.417 L 550.283 441.757 L 561.443 441.757 L 561.443 449.017 L 539.543 449.017 L 539.543 449.017 Z  M 566.123 449.017 L 566.123 400.417 L 587.963 400.417 L 587.963 407.737 L 576.863 407.737 L 576.863 419.797 L 585.323 419.797 L 585.323 427.237 L 576.863 427.237 L 576.863 441.757 L 588.083 441.757 L 588.083 449.017 L 566.123 449.017 L 566.123 449.017 Z " fill="rgb(0,0,0)"/></svg>